<svg width="400" height="90" viewBox="0 0 400 90" fill="none" xmlns="http://www.w3.org/2000/svg">
<path fill-rule="evenodd" clip-rule="evenodd" d="M5.22976 31.7543C8.36484 28.367 12.7641 26.4424 17.3715 26.4424H31.1194C38.2012 26.4424 45.0857 28.7837 50.7077 33.1037L51.1945 33.478C54.1592 35.7561 56.6584 38.5861 58.5554 41.813C61.1929 46.3001 62.5842 51.4141 62.5842 56.6233V72.268C62.5842 76.7125 60.7626 80.9614 57.5465 84.018C51.4943 89.7702 42.0705 89.949 35.8059 84.4305L35.656 84.2985C32.1201 81.1838 30.0929 76.6918 30.0929 71.9712V59.4871H17.0865C12.7465 59.4871 8.58433 57.7574 5.51553 54.6787C-0.708293 48.4348 -0.894006 38.3704 5.09518 31.8995L5.22976 31.7543ZM10.5325 36.9648L10.667 36.8194C12.3982 34.9491 14.8274 33.8863 17.3715 33.8863H31.1194C36.5701 33.8863 41.8688 35.6883 46.1957 39.0133L46.6827 39.3874C48.8904 41.0839 50.7514 43.1914 52.1641 45.5946C54.1283 48.936 55.1643 52.7441 55.1643 56.6233V72.268C55.1643 74.6684 54.1804 76.9632 52.4434 78.6141C49.1748 81.7208 44.085 81.8174 40.7014 78.8368L40.5515 78.7049C38.6202 77.0035 37.5129 74.5497 37.5129 71.9712V56.3825C37.5129 53.986 35.5764 52.0432 33.1875 52.0432H17.0865C14.7144 52.0432 12.4395 51.0978 10.7622 49.415C7.36047 46.0024 7.25897 40.5016 10.5325 36.9648Z" fill="#EDF804"/>
<path fill-rule="evenodd" clip-rule="evenodd" d="M87.3602 57.3881L87.2257 57.5335C84.0905 60.9206 79.6912 62.8452 75.0838 62.8452H61.3359C54.2541 62.8452 47.3698 60.5041 41.7478 56.1839L46.2596 50.2743C50.5867 53.5993 55.8854 55.4013 61.3359 55.4013H75.0838C77.6279 55.4013 80.0573 54.3385 81.7883 52.4682L81.923 52.3228C85.1963 48.7862 85.0949 43.2852 81.6931 39.8725C80.0159 38.1898 77.741 37.2444 75.3689 37.2444H59.2679C56.8791 37.2444 54.9425 35.3017 54.9425 32.9051V17.3165C54.9425 14.7378 53.8353 12.2842 51.9038 10.5828L51.7539 10.4507C48.3705 7.47028 43.2807 7.56687 40.0119 10.6736C38.2749 12.3244 37.291 14.6192 37.291 17.0197V32.6643C37.291 36.5435 38.327 40.3518 40.2914 43.6932C41.7039 46.0962 43.5651 48.2037 45.7728 49.9001L46.2596 50.2743L41.7478 56.1839L41.2608 55.8097C38.2962 53.5315 35.797 50.7015 33.9001 47.4746C31.2624 42.9875 29.8711 37.8735 29.8711 32.6643V17.0197C29.8711 12.5752 31.6929 8.32628 34.909 5.26964C40.961 -0.482518 50.385 -0.661346 56.6496 4.8571L56.7995 4.98912C56.7995 4.9891 56.7995 4.98914 56.7995 4.98912C60.3354 8.10385 62.3624 12.5958 62.3624 17.3165V29.8006H75.3689C79.7088 29.8006 83.8711 31.5302 86.9399 34.6089C93.1637 40.8528 93.3493 50.9172 87.3602 57.3881Z" fill="#EDF804"/>
<path d="M55.1641 54.5078L62.3614 55.487V63.3214H55.1641V54.5078Z" fill="#EDF804"/>
<path d="M135.273 21.1626C135.273 22.9441 134.865 24.5797 134.05 26.0692C133.235 27.5294 131.983 28.7122 130.294 29.6177C128.606 30.5229 126.51 30.9757 124.006 30.9757H119.377V42.0155H111.91V11.2618H124.006C126.452 11.2618 128.519 11.6853 130.207 12.5323C131.895 13.3793 133.162 14.5475 134.006 16.037C134.85 17.5265 135.273 19.2351 135.273 21.1626ZM123.439 25.0178C124.865 25.0178 125.928 24.6819 126.626 24.0102C127.325 23.3383 127.674 22.3893 127.674 21.1626C127.674 19.936 127.325 18.9868 126.626 18.3151C125.928 17.6432 124.865 17.3074 123.439 17.3074H119.377V25.0178H123.439ZM143.571 9.59712V42.0155H136.103V9.59712H143.571ZM144.44 29.7491C144.44 27.2373 144.906 25.0323 145.838 23.134C146.799 21.2355 148.094 19.7753 149.724 18.7532C151.355 17.7309 153.174 17.2198 155.183 17.2198C156.9 17.2198 158.4 17.5703 159.681 18.2713C160.991 18.9722 161.995 19.8922 162.694 21.0312V17.5703H170.161V42.0155H162.694V38.5546C161.966 39.6936 160.947 40.6136 159.637 41.3146C158.356 42.0155 156.857 42.366 155.139 42.366C153.16 42.366 151.355 41.8548 149.724 40.8327C148.094 39.7813 146.799 38.3063 145.838 36.408C144.906 34.4804 144.44 32.2607 144.44 29.7491ZM162.694 29.7929C162.694 27.9237 162.17 26.4488 161.122 25.3683C160.103 24.2876 158.851 23.7473 157.366 23.7473C155.882 23.7473 154.615 24.2876 153.567 25.3683C152.548 26.4197 152.039 27.8799 152.039 29.7491C152.039 31.6182 152.548 33.1076 153.567 34.2176C154.615 35.2981 155.882 35.8385 157.366 35.8385C158.851 35.8385 160.103 35.2981 161.122 34.2176C162.17 33.1369 162.694 31.662 162.694 29.7929ZM182.419 42.366C180.293 42.366 178.402 42.0008 176.742 41.2707C175.083 40.5405 173.773 39.5475 172.812 38.2918C171.851 37.0066 171.313 35.5756 171.196 33.9985H178.576C178.664 34.8454 179.057 35.5318 179.755 36.0575C180.454 36.5832 181.313 36.8461 182.332 36.8461C183.263 36.8461 183.977 36.6709 184.472 36.3204C184.996 35.9407 185.258 35.4588 185.258 34.8747C185.258 34.1738 184.894 33.6626 184.166 33.3414C183.437 32.9909 182.258 32.6112 180.629 32.2024C178.882 31.7934 177.427 31.37 176.262 30.9319C175.097 30.4646 174.093 29.7491 173.249 28.7853C172.405 27.7923 171.982 26.4635 171.982 24.7987C171.982 23.3969 172.361 22.1264 173.118 20.9874C173.904 19.8191 175.039 18.8991 176.524 18.2275C178.038 17.5556 179.829 17.2198 181.895 17.2198C184.952 17.2198 187.354 17.9792 189.1 19.4979C190.877 21.0165 191.895 23.0317 192.157 25.5435H185.258C185.141 24.6964 184.763 24.0247 184.122 23.5283C183.511 23.0317 182.695 22.7836 181.677 22.7836C180.803 22.7836 180.134 22.9588 179.668 23.3093C179.202 23.6305 178.969 24.0831 178.969 24.6673C178.969 25.3683 179.333 25.894 180.061 26.2444C180.817 26.5949 181.982 26.9454 183.555 27.2958C185.359 27.763 186.83 28.2304 187.965 28.6977C189.1 29.1358 190.091 29.8658 190.934 30.8881C191.808 31.881 192.258 33.2245 192.288 34.9185C192.288 36.3495 191.881 37.6346 191.065 38.7737C190.279 39.8834 189.13 40.7596 187.616 41.4022C186.131 42.0446 184.398 42.366 182.419 42.366ZM207.38 35.6633V42.0155H203.581C200.873 42.0155 198.763 41.3584 197.249 40.0441C195.736 38.7006 194.978 36.5247 194.978 33.5166V23.7912H192.009V17.5703H194.978V11.6123H202.445V17.5703H207.336V23.7912H202.445V33.6043C202.445 34.3343 202.62 34.86 202.969 35.1814C203.319 35.5026 203.902 35.6633 204.716 35.6633H207.38ZM212.239 15.0294C210.929 15.0294 209.851 14.6497 209.008 13.8904C208.192 13.1018 207.785 12.138 207.785 10.999C207.785 9.83078 208.192 8.86698 209.008 8.10763C209.851 7.31908 210.929 6.9248 212.239 6.9248C213.52 6.9248 214.568 7.31908 215.383 8.10763C216.227 8.86698 216.65 9.83078 216.65 10.999C216.65 12.138 216.227 13.1018 215.383 13.8904C214.568 14.6497 213.52 15.0294 212.239 15.0294ZM215.951 17.5703V42.0155H208.484V17.5703H215.951ZM216.821 29.7929C216.821 27.252 217.329 25.0323 218.349 23.134C219.397 21.2355 220.838 19.7753 222.672 18.7532C224.534 17.7309 226.66 17.2198 229.048 17.2198C232.105 17.2198 234.651 18.023 236.69 19.6293C238.756 21.2355 240.11 23.499 240.751 26.4197H232.803C232.133 24.5504 230.838 23.6159 228.917 23.6159C227.548 23.6159 226.456 24.1562 225.642 25.2368C224.826 26.2882 224.419 27.8068 224.419 29.7929C224.419 31.7788 224.826 33.3121 225.642 34.3928C226.456 35.4442 227.548 35.9699 228.917 35.9699C230.838 35.9699 232.133 35.0352 232.803 33.1662H240.751C240.11 36.0283 238.756 38.277 236.69 39.9127C234.622 41.5481 232.075 42.366 229.048 42.366C226.66 42.366 224.534 41.8548 222.672 40.8327C220.838 39.8103 219.397 38.3501 218.349 36.4518C217.329 34.5533 216.821 32.3338 216.821 29.7929ZM252.779 42.3221C250.538 42.3221 248.529 41.957 246.753 41.2269C244.978 40.4967 243.551 39.4161 242.473 37.9851C241.425 36.554 240.873 34.8309 240.814 32.8157H248.762C248.879 33.9547 249.272 34.8309 249.941 35.4442C250.611 36.0283 251.485 36.3204 252.561 36.3204C253.668 36.3204 254.541 36.0721 255.181 35.5756C255.822 35.0499 256.141 34.3343 256.141 33.429C256.141 32.6696 255.879 32.0417 255.355 31.5453C254.861 31.0486 254.236 30.6398 253.478 30.3186C252.751 29.9972 251.703 29.6322 250.334 29.2234C248.355 28.6101 246.739 27.9968 245.486 27.3834C244.236 26.7701 243.158 25.8647 242.255 24.6673C241.354 23.4698 240.901 21.9074 240.901 19.9798C240.901 17.1176 241.935 14.8834 244.002 13.277C246.07 11.6415 248.762 10.8238 252.08 10.8238C255.458 10.8238 258.18 11.6415 260.246 13.277C262.314 14.8834 263.42 17.1322 263.565 20.0236H255.486C255.429 19.0306 255.065 18.2566 254.395 17.7018C253.726 17.1176 252.866 16.8255 251.818 16.8255C250.917 16.8255 250.189 17.0738 249.635 17.5703C249.083 18.0375 248.805 18.7239 248.805 19.6293C248.805 20.6222 249.272 21.3962 250.203 21.9512C251.135 22.506 252.59 23.1048 254.569 23.7473C256.55 24.419 258.15 25.0616 259.373 25.6749C260.625 26.2882 261.703 27.179 262.604 28.3472C263.507 29.5153 263.958 31.0196 263.958 32.8595C263.958 34.6119 263.507 36.2035 262.604 37.6346C261.731 39.0656 260.451 40.2046 258.762 41.0517C257.074 41.8986 255.079 42.3221 252.779 42.3221ZM289.558 17.5703V42.0155H282.091V38.686C281.334 39.7665 280.3 40.6427 278.99 41.3146C277.71 41.957 276.283 42.2783 274.711 42.2783C272.849 42.2783 271.203 41.8693 269.776 41.0517C268.351 40.2046 267.244 38.9927 266.458 37.4156C265.672 35.8385 265.279 33.9838 265.279 31.8519V17.5703H272.702V30.8443C272.702 32.4798 273.125 33.7502 273.968 34.6557C274.814 35.5609 275.949 36.0137 277.375 36.0137C278.831 36.0137 279.981 35.5609 280.824 34.6557C281.67 33.7502 282.091 32.4798 282.091 30.8443V17.5703H289.558ZM299.333 21.6445C300.206 20.301 301.298 19.2496 302.608 18.4903C303.918 17.7018 305.373 17.3074 306.975 17.3074V25.2368H304.922C303.058 25.2368 301.661 25.6457 300.73 26.4635C299.799 27.252 299.333 28.6539 299.333 30.6691V42.0155H291.865V17.5703H299.333V21.6445ZM316.744 17.2198C318.463 17.2198 319.962 17.5703 321.242 18.2713C322.552 18.9722 323.556 19.8922 324.255 21.0312V17.5703H331.722V41.9717C331.722 44.2205 331.272 46.2502 330.368 48.0611C329.495 49.901 328.141 51.3613 326.307 52.4419C324.503 53.5224 322.246 54.0628 319.539 54.0628C315.93 54.0628 313.004 53.2012 310.762 51.4781C308.52 49.7841 307.24 47.4768 306.919 44.5564H314.299C314.533 45.4909 315.085 46.2211 315.958 46.7468C316.831 47.3016 317.909 47.5792 319.189 47.5792C320.734 47.5792 321.956 47.1264 322.858 46.2211C323.79 45.3449 324.255 43.9283 324.255 41.9717V38.5108C323.528 39.6498 322.524 40.5844 321.242 41.3146C319.962 42.0155 318.463 42.366 316.744 42.366C314.735 42.366 312.917 41.8548 311.286 40.8327C309.656 39.7813 308.36 38.3063 307.399 36.408C306.468 34.4804 306.002 32.2607 306.002 29.7491C306.002 27.2373 306.468 25.0323 307.399 23.134C308.36 21.2355 309.656 19.7753 311.286 18.7532C312.917 17.7309 314.735 17.2198 316.744 17.2198ZM324.255 29.7929C324.255 27.9237 323.731 26.4488 322.683 25.3683C321.665 24.2876 320.412 23.7473 318.927 23.7473C317.443 23.7473 316.176 24.2876 315.128 25.3683C314.11 26.4197 313.6 27.8799 313.6 29.7491C313.6 31.6182 314.11 33.1076 315.128 34.2176C316.176 35.2981 317.443 35.8385 318.927 35.8385C320.412 35.8385 321.665 35.2981 322.683 34.2176C323.731 33.1369 324.255 31.662 324.255 29.7929ZM357.037 29.3986C357.037 30.0996 356.994 30.8296 356.906 31.5891H340.007C340.124 33.1076 340.604 34.2759 341.448 35.0937C342.321 35.8823 343.383 36.2766 344.636 36.2766C346.499 36.2766 347.794 35.488 348.522 33.9109H356.47C356.063 35.5171 355.32 36.9628 354.243 38.248C353.195 39.5329 351.871 40.5405 350.269 41.2707C348.667 42.0008 346.877 42.366 344.898 42.366C342.51 42.366 340.386 41.8548 338.522 40.8327C336.658 39.8103 335.203 38.3501 334.155 36.4518C333.107 34.5533 332.583 32.3338 332.583 29.7929C332.583 27.252 333.093 25.0323 334.112 23.134C335.16 21.2355 336.615 19.7753 338.479 18.7532C340.342 17.7309 342.482 17.2198 344.898 17.2198C347.256 17.2198 349.352 17.7163 351.186 18.7094C353.02 19.7022 354.447 21.1188 355.465 22.9588C356.513 24.7987 357.037 26.9454 357.037 29.3986ZM349.396 27.4273C349.396 26.1421 348.959 25.12 348.086 24.3607C347.212 23.6012 346.12 23.2216 344.81 23.2216C343.558 23.2216 342.496 23.5867 341.623 24.3169C340.779 25.0469 340.255 26.0837 340.051 27.4273H349.396ZM365.387 21.6445C366.26 20.301 367.352 19.2496 368.662 18.4903C369.972 17.7018 371.429 17.3074 373.029 17.3074V25.2368H370.976C369.114 25.2368 367.717 25.6457 366.784 26.4635C365.853 27.252 365.387 28.6539 365.387 30.6691V42.0155H357.92V17.5703H365.387V21.6445ZM398.433 17.5703L383.149 53.6247H375.114L380.704 41.1831L370.791 17.5703H379.132L384.765 32.8595L390.355 17.5703H398.433Z" fill="white"/>
<path d="M110.363 67.8066C110.363 65.6617 110.856 63.7376 111.841 62.0344C112.847 60.3311 114.199 59.0063 115.897 58.0601C117.616 57.0928 119.492 56.6091 121.525 56.6091C123.851 56.6091 125.916 57.1874 127.719 58.3439C129.542 59.4795 130.863 61.0986 131.68 63.2014H127.373C126.807 62.0449 126.021 61.1827 125.015 60.615C124.009 60.0472 122.845 59.7633 121.525 59.7633C120.079 59.7633 118.789 60.0893 117.658 60.7411C116.526 61.393 115.635 62.3288 114.985 63.5484C114.356 64.768 114.042 66.1874 114.042 67.8066C114.042 69.4257 114.356 70.8451 114.985 72.0648C115.635 73.2844 116.526 74.2307 117.658 74.9036C118.789 75.5554 120.079 75.8814 121.525 75.8814C122.845 75.8814 124.009 75.5975 125.015 75.0297C126.021 74.462 126.807 73.5998 127.373 72.4433H131.68C130.863 74.5461 129.542 76.1652 127.719 77.3008C125.916 78.4363 123.851 79.004 121.525 79.004C119.471 79.004 117.595 78.5309 115.897 77.5846C114.199 76.6174 112.847 75.2821 111.841 73.5788C110.856 71.8755 110.363 69.9514 110.363 67.8066ZM139.46 55.4736V78.8148H135.876V55.4736H139.46ZM145.989 59.1325C145.34 59.1325 144.795 58.9117 144.354 58.4701C143.914 58.0285 143.694 57.4818 143.694 56.8299C143.694 56.178 143.914 55.6313 144.354 55.1897C144.795 54.7481 145.34 54.5273 145.989 54.5273C146.618 54.5273 147.153 54.7481 147.593 55.1897C148.033 55.6313 148.253 56.178 148.253 56.8299C148.253 57.4818 148.033 58.0285 147.593 58.4701C147.153 58.9117 146.618 59.1325 145.989 59.1325ZM147.75 61.4351V78.8148H144.166V61.4351H147.75ZM161.196 61.1512C162.559 61.1512 163.775 61.4351 164.844 62.0028C165.934 62.5706 166.782 63.4117 167.39 64.5262C167.998 65.6407 168.302 66.9865 168.302 68.5636V78.8148H164.749V69.0998C164.749 67.5437 164.362 66.3556 163.586 65.5356C162.81 64.6944 161.752 64.2739 160.41 64.2739C159.069 64.2739 158 64.6944 157.203 65.5356C156.428 66.3556 156.04 67.5437 156.04 69.0998V78.8148H152.456V61.4351H156.04V63.4222C156.627 62.7073 157.371 62.15 158.272 61.7505C159.195 61.351 160.169 61.1512 161.196 61.1512ZM174.698 59.1325C174.048 59.1325 173.503 58.9117 173.063 58.4701C172.623 58.0285 172.403 57.4818 172.403 56.8299C172.403 56.178 172.623 55.6313 173.063 55.1897C173.503 54.7481 174.048 54.5273 174.698 54.5273C175.326 54.5273 175.861 54.7481 176.301 55.1897C176.741 55.6313 176.961 56.178 176.961 56.8299C176.961 57.4818 176.741 58.0285 176.301 58.4701C175.861 58.9117 175.326 59.1325 174.698 59.1325ZM176.458 61.4351V78.8148H172.874V61.4351H176.458ZM179.969 70.1092C179.969 68.3218 180.326 66.7552 181.038 65.4094C181.772 64.0426 182.778 62.9911 184.057 62.2552C185.335 61.5192 186.802 61.1512 188.458 61.1512C190.554 61.1512 192.284 61.6559 193.646 62.6652C195.029 63.6535 195.962 65.0729 196.444 66.9234H192.577C192.263 66.0613 191.76 65.3884 191.068 64.9047C190.376 64.4211 189.506 64.1792 188.458 64.1792C186.991 64.1792 185.817 64.7049 184.937 65.7563C184.078 66.7867 183.648 68.2377 183.648 70.1092C183.648 71.9807 184.078 73.4421 184.937 74.4935C185.817 75.5449 186.991 76.0706 188.458 76.0706C190.533 76.0706 191.906 75.1559 192.577 73.3265H196.444C195.941 75.0928 194.998 76.5017 193.615 77.5531C192.231 78.5835 190.512 79.0987 188.458 79.0987C186.802 79.0987 185.335 78.7307 184.057 77.9947C182.778 77.2377 181.772 76.1863 181.038 74.8405C180.326 73.4736 179.969 71.8965 179.969 70.1092ZM223.031 56.893V78.8148H219.447V63.8007L212.781 78.8148H210.298L203.601 63.8007V78.8148H200.016V56.893H203.884L211.555 74.0835L219.195 56.893H223.031ZM226.547 70.0461C226.547 68.3007 226.904 66.7552 227.616 65.4094C228.35 64.0636 229.335 63.0227 230.572 62.2867C231.83 61.5297 233.213 61.1512 234.722 61.1512C236.085 61.1512 237.269 61.4246 238.275 61.9713C239.302 62.497 240.119 63.1594 240.727 63.9584V61.4351H244.343V78.8148H240.727V76.2283C240.119 77.0484 239.292 77.7318 238.243 78.2786C237.195 78.8253 236.001 79.0987 234.659 79.0987C233.171 79.0987 231.809 78.7202 230.572 77.9631C229.335 77.1851 228.35 76.1127 227.616 74.7458C226.904 73.358 226.547 71.7914 226.547 70.0461ZM240.727 70.1092C240.727 68.9106 240.476 67.8697 239.973 66.9865C239.491 66.1033 238.851 65.4304 238.055 64.9678C237.258 64.5052 236.399 64.2739 235.477 64.2739C234.554 64.2739 233.695 64.5052 232.899 64.9678C232.102 65.4094 231.452 66.0718 230.949 66.9549C230.467 67.8171 230.226 68.8475 230.226 70.0461C230.226 71.2447 230.467 72.2961 230.949 73.2003C231.452 74.1045 232.102 74.7984 232.899 75.2821C233.716 75.7447 234.575 75.976 235.477 75.976C236.399 75.976 237.258 75.7447 238.055 75.2821C238.851 74.8195 239.491 74.1466 239.973 73.2634C240.476 72.3592 240.727 71.3078 240.727 70.1092ZM255.339 79.0987C253.976 79.0987 252.75 78.8568 251.66 78.3732C250.591 77.8685 249.742 77.1956 249.113 76.3545C248.485 75.4923 248.149 74.5356 248.107 73.4842H251.817C251.88 74.2201 252.226 74.8405 252.855 75.3452C253.505 75.8288 254.312 76.0706 255.276 76.0706C256.282 76.0706 257.057 75.8814 257.602 75.5029C258.168 75.1033 258.451 74.5987 258.451 73.9888C258.451 73.337 258.137 72.8533 257.508 72.5379C256.9 72.2225 255.926 71.8755 254.584 71.497C253.285 71.1395 252.226 70.7926 251.409 70.4561C250.591 70.1197 249.878 69.6045 249.271 68.9106C248.684 68.2166 248.39 67.3019 248.39 66.1664C248.39 65.2412 248.663 64.4 249.208 63.643C249.753 62.865 250.528 62.2552 251.534 61.8136C252.561 61.372 253.735 61.1512 255.056 61.1512C257.026 61.1512 258.609 61.6559 259.803 62.6652C261.019 63.6535 261.669 65.0098 261.753 66.7341H258.168C258.105 65.9561 257.791 65.3358 257.225 64.8732C256.659 64.4105 255.894 64.1792 254.93 64.1792C253.987 64.1792 253.264 64.358 252.76 64.7155C252.257 65.0729 252.006 65.5461 252.006 66.1348C252.006 66.5975 252.174 66.9865 252.509 67.3019C252.844 67.6173 253.253 67.8697 253.735 68.0589C254.217 68.2271 254.93 68.4479 255.873 68.7213C257.131 69.0577 258.158 69.4047 258.954 69.7622C259.772 70.0986 260.474 70.6033 261.061 71.2762C261.648 71.9491 261.952 72.8428 261.973 73.9573C261.973 74.9456 261.7 75.8288 261.155 76.6068C260.61 77.3849 259.835 77.9947 258.829 78.4363C257.843 78.8779 256.68 79.0987 255.339 79.0987ZM270.029 64.3685V73.9888C270.029 74.6407 270.175 75.1138 270.469 75.4082C270.783 75.6816 271.307 75.8183 272.041 75.8183H274.242V78.8148H271.412C269.798 78.8148 268.561 78.4363 267.702 77.6793C266.843 76.9223 266.413 75.6921 266.413 73.9888V64.3685H264.369V61.4351H266.413V57.1138H270.029V61.4351H274.242V64.3685H270.029ZM293.423 69.6991C293.423 70.351 293.381 70.9398 293.297 71.4655H280.06C280.165 72.8533 280.678 73.9678 281.601 74.8089C282.523 75.6501 283.655 76.0706 284.996 76.0706C286.925 76.0706 288.287 75.261 289.084 73.6419H292.951C292.427 75.24 291.473 76.5543 290.09 77.5846C288.727 78.594 287.029 79.0987 284.996 79.0987C283.34 79.0987 281.852 78.7307 280.532 77.9947C279.232 77.2377 278.205 76.1863 277.45 74.8405C276.717 73.4736 276.35 71.8965 276.35 70.1092C276.35 68.3218 276.706 66.7552 277.419 65.4094C278.153 64.0426 279.169 62.9911 280.469 62.2552C281.789 61.5192 283.298 61.1512 284.996 61.1512C286.631 61.1512 288.088 61.5087 289.367 62.2236C290.645 62.9386 291.641 63.9479 292.354 65.2517C293.066 66.5344 293.423 68.0169 293.423 69.6991ZM289.681 68.5636C289.66 67.2388 289.188 66.1769 288.266 65.3778C287.344 64.5788 286.202 64.1792 284.839 64.1792C283.602 64.1792 282.544 64.5788 281.664 65.3778C280.783 66.1559 280.259 67.2178 280.092 68.5636H289.681ZM300.533 63.9584C301.057 63.0753 301.749 62.3919 302.609 61.9082C303.489 61.4035 304.526 61.1512 305.721 61.1512V64.8732H304.809C303.405 64.8732 302.336 65.2306 301.602 65.9456C300.89 66.6605 300.533 67.9012 300.533 69.6676V78.8148H296.949V61.4351H300.533V63.9584Z" fill="white"/>
</svg>
